<svg width="512" height="512" viewBox="0 0 512 512" fill="none" xmlns="http://www.w3.org/2000/svg">
  <g transform="translate(84, 3)">
    <path x="29" y="39" width="286" height="451" rx="51" stroke="#0052CC" stroke-width="22" d="M79 39H265A51 39 0 0 1 315 77V451A51 39 0 0 1 265 490H79A51 39 0 0 1 29 451V77A51 39 0 0 1 79 39z"/>
    <path x="114" y="0" width="115" height="39" rx="12" fill="#0052CC" d="M126 0H217A12 9 0 0 1 229 9V30A12 9 0 0 1 217 39H126A12 9 0 0 1 114 30V9A12 9 0 0 1 126 0z"/>
    <path x="55" y="80" width="235" height="68" rx="17" fill="#36B37E" d="M72 80H273A17 13 0 0 1 290 93V135A17 13 0 0 1 273 148H72A17 13 0 0 1 55 135V93A17 13 0 0 1 72 80z"/>
    <path x="55" y="156" width="235" height="68" rx="17" fill="#0052CC" d="M72 156H273A17 13 0 0 1 290 169V211A17 13 0 0 1 273 224H72A17 13 0 0 1 55 211V169A17 13 0 0 1 72 156z"/>
    <path x="55" y="232" width="235" height="68" rx="17" fill="#998DD9" d="M72 232H273A17 13 0 0 1 290 245V287A17 13 0 0 1 273 300H72A17 13 0 0 1 55 287V245A17 13 0 0 1 72 232z"/>
    <path x="55" y="308" width="235" height="68" rx="17" fill="#FF8B00" d="M72 308H273A17 13 0 0 1 290 321V363A17 13 0 0 1 273 376H72A17 13 0 0 1 55 363V321A17 13 0 0 1 72 308z"/>
    <path x="55" y="384" width="235" height="68" rx="17" fill="#FBBF24" d="M72 384H273A17 13 0 0 1 290 397V439A17 13 0 0 1 273 452H72A17 13 0 0 1 55 439V397A17 13 0 0 1 72 384z"/>
  </g>
</svg>
