<svg width="512" height="512" viewBox="0 0 512 512" fill="none" xmlns="http://www.w3.org/2000/svg">
  <g transform="translate(136 30)">
    <path x="20" y="35" width="200" height="410" rx="35" stroke="#0052CC" stroke-width="20" d="M55 35H185A35 35 0 0 1 220 70V410A35 35 0 0 1 185 445H55A35 35 0 0 1 20 410V70A35 35 0 0 1 55 35z"/>
    <path x="80" y="0" width="80" height="35" rx="8" fill="#0052CC" d="M88 0H152A8 8 0 0 1 160 8V27A8 8 0 0 1 152 35H88A8 8 0 0 1 80 27V8A8 8 0 0 1 88 0z"/>
    <path x="45" y="75" width="150" height="55" rx="12" fill="#36B37E" d="M57 75H183A12 12 0 0 1 195 87V118A12 12 0 0 1 183 130H57A12 12 0 0 1 45 118V87A12 12 0 0 1 57 75z"/>
    <path x="45" y="145" width="150" height="55" rx="12" fill="#0052CC" d="M57 145H183A12 12 0 0 1 195 157V188A12 12 0 0 1 183 200H57A12 12 0 0 1 45 188V157A12 12 0 0 1 57 145z"/>
    <path x="45" y="215" width="150" height="55" rx="12" fill="#998DD9" d="M57 215H183A12 12 0 0 1 195 227V258A12 12 0 0 1 183 270H57A12 12 0 0 1 45 258V227A12 12 0 0 1 57 215z"/>
    <path x="45" y="285" width="150" height="55" rx="12" fill="#FF8B00" d="M57 285H183A12 12 0 0 1 195 297V328A12 12 0 0 1 183 340H57A12 12 0 0 1 45 328V297A12 12 0 0 1 57 285z"/>
    <path x="45" y="355" width="150" height="55" rx="12" fill="#FBBF24" d="M57 355H183A12 12 0 0 1 195 367V398A12 12 0 0 1 183 410H57A12 12 0 0 1 45 398V367A12 12 0 0 1 57 355z"/>
  </g>
</svg>
