<svg width="512" height="512" viewBox="0 0 512 512" fill="none" xmlns="http://www.w3.org/2000/svg">
  <!-- Top-Left: Blue, number 42 -->
  <rect x="8" y="8" width="238" height="238" rx="36" fill="#0052CC"/>
  <text x="127" y="176" font-family="Arial Black, Impact, sans-serif" font-size="142" font-weight="900"
    fill="white" stroke="white" stroke-width="1.7" paint-order="stroke" text-anchor="middle" letter-spacing="-6">42</text>

  <!-- Top-Right: Green, bars -->
  <rect x="266" y="8" width="238" height="238" rx="36" fill="#36B37E"/>
  <rect x="300" y="68" width="170" height="23" rx="7" fill="white" fill-opacity="0.45"/>
  <rect x="300" y="110" width="113" height="23" rx="7" fill="white" fill-opacity="0.35"/>
  <rect x="300" y="152" width="147" height="23" rx="7" fill="white" fill-opacity="0.4"/>

  <!-- Bottom-Left: Purple, donut -->
  <rect x="8" y="266" width="238" height="238" rx="36" fill="#998DD9"/>
  <circle cx="127" cy="385" r="74" fill="none" stroke="white" stroke-width="25" stroke-opacity="0.3"/>
  <circle cx="127" cy="385" r="74" fill="none" stroke="white" stroke-width="25"
    stroke-dasharray="325 465" stroke-dashoffset="116" transform="rotate(-90 127 385)" stroke-linecap="round"/>

  <!-- Bottom-Right: Orange, sparkline with filled area -->
  <rect x="266" y="266" width="238" height="238" rx="36" fill="#FF8B00"/>
  <path d="M298 451 L332 411 L366 428 L400 371 L434 394 L472 326 L472 473 L298 473 Z"
    fill="white" fill-opacity="0.25"/>
  <path d="M298 451 L332 411 L366 428 L400 371 L434 394 L472 326"
    stroke="white" stroke-width="11" stroke-linecap="round" stroke-linejoin="round" fill="none"/>
  <circle cx="472" cy="326" r="10" fill="white"/>
</svg>
