<svg xmlns="http://www.w3.org/2000/svg" viewBox="0 0 160 160" width="160" height="160" fill="none">
  <rect width="160" height="160" rx="24" fill="none"/>
  <g transform="translate(2, 8) scale(3.9)">
    <!-- Gauge arc segments -->
    <path d="M8 28 A16 16 0 0 1 8 12" stroke="#22C55E" stroke-width="7" stroke-linecap="round" fill="none"/>
    <path d="M8 12 A16 16 0 0 1 22 4" stroke="#FBBF24" stroke-width="7" stroke-linecap="round" fill="none"/>
    <path d="M22 4 A16 16 0 0 1 36 12" stroke="#F97316" stroke-width="7" stroke-linecap="round" fill="none"/>
  </g>
  <rect x="90" y="85" width="56" height="30" rx="7" fill="#CBD5E1"/>
  <rect x="50" y="85" width="56" height="30" rx="7" fill="#A855F7"/>

  <rect x="50" y="120" width="30" height="30" rx="7" fill="#0052CC" opacity="0.5"/>
  <rect x="83" y="120" width="30" height="30" rx="7" fill="#0052CC" opacity="0.6"/>
  <rect x="116" y="120" width="30" height="30" rx="7" fill="#0052CC" opacity="0.7"/>
 
</svg>
