<svg width="512" height="512" viewBox="0 0 512 512" fill="none" xmlns="http://www.w3.org/2000/svg">
  <!-- Rounded White Container -->
  <rect x="10" y="10" width="492" height="492" rx="90" fill="white" stroke-width="4"/>

  <defs>
    <clipPath id="container-clip">
      <rect x="10" y="10" width="492" height="492" rx="90"/>
    </clipPath>
  </defs>

  <g clip-path="url(#container-clip)" transform="translate(256, 256)">
    <!-- Globe -->
    <circle cx="0" cy="0" r="230" stroke="#998DD9" stroke-width="30" fill="#F8FAFC"/>
    <!-- Grid lines -->
    <ellipse cx="0" cy="0" rx="230" ry="50" stroke="#998DD9" stroke-opacity="0.9" stroke-width="4" fill="none"/>
    <ellipse cx="0" cy="0" rx="50" ry="230" stroke="#998DD9" stroke-opacity="0.9" stroke-width="4" fill="none"/>
    <ellipse cx="0" cy="0" rx="138" ry="230" stroke="#998DD9" stroke-opacity="0.9" stroke-width="4" fill="none"/>

    <!-- Pin 1 - left - Green -->
    <g transform="translate(-95, -85)">
      <path d="M0 -78 C-36 -78, -60 -50, -60 -18 C-60 29, 0 71, 0 71 C0 71, 60 29, 60 -18 C60 -50, 36 -78, 0 -78 Z" fill="#36B37E"/>
      <circle cx="0" cy="-23" r="23" fill="white"/>
    </g>

    <!-- Pin 2 - right upper - Blue -->
    <g transform="translate(108, -55)">
      <path d="M0 -70 C-32 -70, -53 -45, -53 -16 C-53 25, 0 63, 0 63 C0 63, 53 25, 53 -16 C53 -45, 32 -70, 0 -70 Z" fill="#0052CC"/>
      <circle cx="0" cy="-20" r="20" fill="white"/>
    </g>

    <!-- Pin 3 - center - Orange -->
    <g transform="translate(6, 55)">
      <path d="M0 -66 C-30 -66, -50 -42, -50 -14 C-50 24, 0 58, 0 58 C0 58, 50 24, 50 -14 C50 -42, 30 -66, 0 -66 Z" fill="#FF8B00"/>
      <circle cx="0" cy="-19" r="19" fill="white"/>
    </g>

    <!-- Pin 4 - bottom left - Light Blue -->
    <g transform="translate(-85, 120)">
      <path d="M0 -60 C-28 -60, -46 -38, -46 -13 C-46 22, 0 53, 0 53 C0 53, 46 22, 46 -13 C46 -38, 28 -60, 0 -60 Z" fill="#2684FF"/>
      <circle cx="0" cy="-17" r="17" fill="white"/>
    </g>

    <!-- Pin 5 - top center - Green -->
    <g transform="translate(10, -140)">
      <path d="M0 -55 C-25 -55, -42 -35, -42 -12 C-42 19, 0 48, 0 48 C0 48, 42 19, 42 -12 C42 -35, 25 -55, 0 -55 Z" fill="#36B37E" fill-opacity="0.7"/>
      <circle cx="0" cy="-16" r="16" fill="white"/>
    </g>

    <!-- Pin 6 - right lower - Yellow -->
    <g transform="translate(130, 70)">
      <path d="M0 -60 C-28 -60, -46 -38, -46 -13 C-46 22, 0 53, 0 53 C0 53, 46 22, 46 -13 C46 -38, 28 -60, 0 -60 Z" fill="#FFC400"/>
      <circle cx="0" cy="-17" r="17" fill="white"/>
    </g>

  </g>
</svg>
